<svg width="76.000000" height="76.000000" viewBox="0 0 76 76" fill="none" xmlns="http://www.w3.org/2000/svg" xmlns:xlink="http://www.w3.org/1999/xlink">
	<desc>
			Created with Pixso.
	</desc>
	<defs>
		<clipPath id="clip20_112">
			<rect id="Компьютер" width="76.000000" height="76.000000" fill="white" fill-opacity="0"/>
		</clipPath>
	</defs>
	<g clip-path="url(#clip20_112)">
		<rect id="rect" x="30.083313" y="50.666748" width="15.833334" height="14.250000" fill="#000000" fill-opacity="0"/>
		<rect id="rect" x="30.083313" y="50.666748" width="15.833334" height="14.250000" stroke="#FCC204" stroke-opacity="1.000000" stroke-width="3.000000" stroke-linejoin="round"/>
		<rect id="rect" x="7.916687" y="12.666748" rx="2.000000" width="60.166668" height="38.000000" fill="#FCC204" fill-opacity="1.000000"/>
		<rect id="rect" x="7.916687" y="12.666748" rx="2.000000" width="60.166668" height="38.000000" stroke="#FCC204" stroke-opacity="1.000000" stroke-width="3.000000"/>
		<path id="path" d="M34.85 44.23L34.83 44.25C33.99 44.25 33.33 43.59 33.33 42.75C33.33 41.9 33.99 41.25 34.83 41.25L34.85 41.27L34.85 44.23ZM41.14 41.27L41.16 41.25C42 41.25 42.66 41.9 42.66 42.75C42.66 43.59 42 44.25 41.16 44.25L41.14 44.23L41.14 41.27Z" fill="#000000" fill-opacity="0" fill-rule="nonzero"/>
		<path id="path" d="M34.83 42.75L41.16 42.75" stroke="#FFFFFF" stroke-opacity="1.000000" stroke-width="3.000000" stroke-linejoin="round" stroke-linecap="round"/>
		<path id="path" d="M22.18 66.39L22.16 66.41C21.32 66.41 20.66 65.75 20.66 64.91C20.66 64.07 21.32 63.41 22.16 63.41L22.18 63.43L22.18 66.39ZM53.81 63.43L53.83 63.41C54.67 63.41 55.33 64.07 55.33 64.91C55.33 65.75 54.67 66.41 53.83 66.41L53.81 66.39L53.81 63.43Z" fill="#000000" fill-opacity="0" fill-rule="nonzero"/>
		<path id="path" d="M22.16 64.91L53.83 64.91" stroke="#FCC204" stroke-opacity="1.000000" stroke-width="3.000000" stroke-linejoin="round" stroke-linecap="round"/>
	</g>
</svg>
